name C:/MyDriveSym/Projects/mobilecap/Data\Session20210827_0002\mocap\ForceDataProcessed\walking3_forces.mot
datacolumns 19
datarows 14
range 0.00000000 0.00650000
endheader 
time	R_ground_force_vx	R_ground_force_vy	R_ground_force_vz	R_ground_force_px	R_ground_force_py	R_ground_force_pz	R_ground_torque_x	R_ground_torque_y	R_ground_torque_z	L_ground_force_vx	L_ground_force_vy	L_ground_force_vz	L_ground_force_px	L_ground_force_py	L_ground_force_pz	L_ground_torque_x	L_ground_torque_y	L_ground_torque_z	
          0.00000000	          0.00000000	          0.00000000	          0.00000000	          0.12379800	          0.00000000	         -0.20221700	          0.00000000	          0.00000000	          0.00000000	          0.00000000	          0.00000000	          0.00000000	          0.69142600	          0.00000000	         -0.26826600	          0.00000000	          0.00000000	          0.00000000	
          0.00050000	          0.00000000	          0.00000000	          0.00000000	          0.12379800	          0.00000000	         -0.20221700	          0.00000000	          0.00000000	          0.00000000	          0.00000000	          0.00000000	          0.00000000	          0.69142600	          0.00000000	         -0.26826600	          0.00000000	          0.00000000	          0.00000000	
          0.00100000	          2.83870600	         20.36955500	          3.51108600	          0.12379800	          0.00600000	         -0.20221700	          0.00000000	          0.40233300	          0.00000000	          0.00000000	          0.00000000	          0.00000000	          0.69142600	          0.00000000	         -0.26826600	          0.00000000	          0.00000000	          0.00000000	
          0.00150000	          2.75748500	         21.15826900	          3.52941200	          0.12379800	          0.00600000	         -0.20221700	          0.00000000	          0.39685100	          0.00000000	          0.00000000	          0.00000000	          0.00000000	          0.69142600	          0.00000000	         -0.26826600	          0.00000000	          0.00000000	          0.00000000	
          0.00200000	          2.67429600	         21.95770500	          3.54750500	          0.12379800	          0.00600000	         -0.20221700	          0.00000000	          0.39173800	          0.00000000	          0.00000000	          0.00000000	          0.00000000	          0.69142600	          0.00000000	         -0.26826600	          0.00000000	          0.00000000	          0.00000000	
          0.00250000	          2.58911700	         22.76792800	          3.56535700	          0.12379800	          0.00600000	         -0.20221700	          0.00000000	          0.38696200	          0.00000000	          0.00000000	          0.00000000	          0.00000000	          0.69142600	          0.00000000	         -0.26826600	          0.00000000	          0.00000000	          0.00000000	
          0.00300000	          2.50192500	         23.58900300	          3.58296100	          0.12584500	          0.00600000	         -0.20213200	          0.00000000	          0.38249600	          0.00000000	          0.00000000	          0.00000000	          0.00000000	          0.69142600	          0.00000000	         -0.26826600	          0.00000000	          0.00000000	          0.00000000	
          0.00350000	          2.41269900	         24.42099200	          3.60031000	          0.12778800	          0.00600000	         -0.20205000	          0.00000000	          0.37831700	          0.00000000	          0.00000000	          0.00000000	          0.00000000	          0.69142600	          0.00000000	         -0.26826600	          0.00000000	          0.00000000	          0.00000000	
          0.00400000	          2.32141500	         25.26396000	          3.61739700	          0.12963700	          0.00600000	         -0.20197000	          0.00000000	          0.37440200	          0.00000000	          0.00000000	          0.00000000	          0.00000000	          0.69142600	          0.00000000	         -0.26826600	          0.00000000	          0.00000000	          0.00000000	
          0.00450000	          2.22805300	         26.11796800	          3.63421300	          0.13139800	          0.00600000	         -0.20189200	          0.00000000	          0.37073300	          0.00000000	          0.00000000	          0.00000000	          0.00000000	          0.69142600	          0.00000000	         -0.26826600	          0.00000000	          0.00000000	          0.00000000	
          0.00500000	          2.13258800	         26.98307900	          3.65075100	          0.13307700	          0.00600000	         -0.20181500	          0.00000000	          0.36729000	          0.00000000	          0.00000000	          0.00000000	          0.00000000	          0.69142600	          0.00000000	         -0.26826600	          0.00000000	          0.00000000	          0.00000000	
          0.00550000	          2.03499900	         27.85935300	          3.66700500	          0.13468100	          0.00600000	         -0.20174100	          0.00000000	          0.36406000	          0.00000000	          0.00000000	          0.00000000	          0.00000000	          0.69142600	          0.00000000	         -0.26826600	          0.00000000	          0.00000000	          0.00000000	
          0.00600000	          1.93526400	         28.74685100	          3.68296600	          0.13621500	          0.00600000	         -0.20166800	          0.00000000	          0.36102600	          0.00000000	          0.00000000	          0.00000000	          0.00000000	          0.69142600	          0.00000000	         -0.26826600	          0.00000000	          0.00000000	          0.00000000	
          0.00650000	          1.83335900	         29.64563200	          3.69862600	          0.13768300	          0.00600000	         -0.20159600	          0.00000000	          0.35817700	          0.00000000	          0.00000000	          0.00000000	          0.00000000	          0.69142600	          0.00000000	         -0.26826600	          0.00000000	          0.00000000	          0.00000000	
